<mxfile host="Electron" modified="2024-10-08T08:10:06.048Z" agent="Mozilla/5.0 (X11; Linux x86_64) AppleWebKit/537.36 (KHTML, like Gecko) draw.io/24.1.0 Chrome/120.0.6099.109 Electron/28.1.0 Safari/537.36" etag="WW6_Nqj-EZBSrXRILp-i" version="24.1.0" type="device">
  <diagram name="Page-1" id="-cMVqA2Gkwa5aGeDibPs">
    <mxGraphModel dx="1049" dy="1201" grid="1" gridSize="10" guides="1" tooltips="1" connect="1" arrows="1" fold="1" page="0" pageScale="1" pageWidth="413" pageHeight="583" math="1" shadow="0">
      <root>
        <mxCell id="0" />
        <mxCell id="1" parent="0" />
        <mxCell id="GCO7xrDp6TmdYOZJOnFd-127" style="edgeStyle=orthogonalEdgeStyle;rounded=0;orthogonalLoop=1;jettySize=auto;html=1;exitX=0.5;exitY=1;exitDx=0;exitDy=0;" parent="1" edge="1">
          <mxGeometry relative="1" as="geometry">
            <mxPoint x="1240.2" y="-409.79999999999995" as="targetPoint" />
            <mxPoint x="1240" y="-400" as="sourcePoint" />
          </mxGeometry>
        </mxCell>
        <mxCell id="dAHFnxKUKf4HyOokSXOq-42" value="" style="edgeStyle=orthogonalEdgeStyle;rounded=0;orthogonalLoop=1;jettySize=auto;html=1;entryX=0;entryY=0.5;entryDx=0;entryDy=0;exitX=1;exitY=0.5;exitDx=0;exitDy=0;" parent="1" target="IMg1KoeKDZ7LWF8RLD5s-91" edge="1">
          <mxGeometry relative="1" as="geometry">
            <mxPoint x="1280" y="-440" as="sourcePoint" />
            <mxPoint x="1320" y="-440" as="targetPoint" />
          </mxGeometry>
        </mxCell>
        <mxCell id="GCO7xrDp6TmdYOZJOnFd-99" value="&lt;font style=&quot;font-size: 8px;&quot;&gt;$$KpOex+\frac{KiOex}{s}$$&lt;/font&gt;" style="rounded=0;whiteSpace=wrap;html=1;" parent="1" vertex="1">
          <mxGeometry x="1200" y="-479" width="80" height="80" as="geometry" />
        </mxCell>
        <mxCell id="GCO7xrDp6TmdYOZJOnFd-110" value="" style="endArrow=none;html=1;exitX=0.5;exitY=0;exitDx=0;exitDy=0;" parent="1" source="GCO7xrDp6TmdYOZJOnFd-99" edge="1">
          <mxGeometry width="50" height="50" relative="1" as="geometry">
            <mxPoint x="1240" y="-469" as="sourcePoint" />
            <mxPoint x="1260" y="-489" as="targetPoint" />
          </mxGeometry>
        </mxCell>
        <mxCell id="GCO7xrDp6TmdYOZJOnFd-111" value="" style="endArrow=none;html=1;" parent="1" edge="1">
          <mxGeometry width="50" height="50" relative="1" as="geometry">
            <mxPoint x="1260" y="-489" as="sourcePoint" />
            <mxPoint x="1280" y="-489" as="targetPoint" />
          </mxGeometry>
        </mxCell>
        <mxCell id="GCO7xrDp6TmdYOZJOnFd-112" value="&lt;font style=&quot;font-size: 9px;&quot;&gt;$$VSclMaxPu$$&lt;/font&gt;" style="text;html=1;strokeColor=none;fillColor=none;align=center;verticalAlign=middle;whiteSpace=wrap;rounded=0;fontSize=15;" parent="1" vertex="1">
          <mxGeometry x="1200" y="-519" width="160" height="30" as="geometry" />
        </mxCell>
        <mxCell id="GCO7xrDp6TmdYOZJOnFd-113" value="" style="endArrow=none;html=1;" parent="1" edge="1">
          <mxGeometry width="50" height="50" relative="1" as="geometry">
            <mxPoint x="1201" y="-389" as="sourcePoint" />
            <mxPoint x="1181" y="-389" as="targetPoint" />
          </mxGeometry>
        </mxCell>
        <mxCell id="GCO7xrDp6TmdYOZJOnFd-114" value="&lt;font style=&quot;font-size: 9px;&quot;&gt;$$VSclMinPu$$&lt;/font&gt;" style="text;html=1;strokeColor=none;fillColor=none;align=center;verticalAlign=middle;whiteSpace=wrap;rounded=0;fontSize=15;" parent="1" vertex="1">
          <mxGeometry x="1120" y="-393" width="120" height="30" as="geometry" />
        </mxCell>
        <mxCell id="GCO7xrDp6TmdYOZJOnFd-115" value="" style="endArrow=none;html=1;exitX=0.5;exitY=0;exitDx=0;exitDy=0;entryX=0.25;entryY=1;entryDx=0;entryDy=0;" parent="1" target="GCO7xrDp6TmdYOZJOnFd-99" edge="1">
          <mxGeometry width="50" height="50" relative="1" as="geometry">
            <mxPoint x="1201" y="-389" as="sourcePoint" />
            <mxPoint x="1221" y="-409" as="targetPoint" />
          </mxGeometry>
        </mxCell>
        <mxCell id="qLZYFt0uQZEpN5fuRu8l-1" value="" style="edgeStyle=orthogonalEdgeStyle;rounded=0;orthogonalLoop=1;jettySize=auto;html=1;" parent="1" edge="1">
          <mxGeometry relative="1" as="geometry">
            <mxPoint x="-40" y="160" as="sourcePoint" />
          </mxGeometry>
        </mxCell>
        <mxCell id="qLZYFt0uQZEpN5fuRu8l-6" value="" style="whiteSpace=wrap;html=1;aspect=fixed;" parent="1" vertex="1">
          <mxGeometry x="1320" y="-280" width="80" height="80" as="geometry" />
        </mxCell>
        <mxCell id="qLZYFt0uQZEpN5fuRu8l-7" value="" style="endArrow=none;html=1;" parent="1" edge="1">
          <mxGeometry width="50" height="50" relative="1" as="geometry">
            <mxPoint x="1348" y="-226" as="sourcePoint" />
            <mxPoint x="1372" y="-256" as="targetPoint" />
          </mxGeometry>
        </mxCell>
        <mxCell id="qLZYFt0uQZEpN5fuRu8l-8" value="" style="endArrow=none;html=1;" parent="1" edge="1">
          <mxGeometry width="50" height="50" relative="1" as="geometry">
            <mxPoint x="1372" y="-256" as="sourcePoint" />
            <mxPoint x="1392" y="-256" as="targetPoint" />
          </mxGeometry>
        </mxCell>
        <mxCell id="qLZYFt0uQZEpN5fuRu8l-9" value="&lt;font style=&quot;font-size: 8px;&quot;&gt;$$999$$&lt;/font&gt;" style="text;html=1;strokeColor=none;fillColor=none;align=center;verticalAlign=middle;whiteSpace=wrap;rounded=0;fontSize=15;" parent="1" vertex="1">
          <mxGeometry x="1320" y="-310" width="160" height="30" as="geometry" />
        </mxCell>
        <mxCell id="qLZYFt0uQZEpN5fuRu8l-10" value="" style="endArrow=none;html=1;" parent="1" edge="1">
          <mxGeometry width="50" height="50" relative="1" as="geometry">
            <mxPoint x="1348" y="-226" as="sourcePoint" />
            <mxPoint x="1328" y="-226" as="targetPoint" />
          </mxGeometry>
        </mxCell>
        <mxCell id="qLZYFt0uQZEpN5fuRu8l-11" value="&lt;font style=&quot;font-size: 9px;&quot;&gt;$$0$$&lt;/font&gt;" style="text;html=1;strokeColor=none;fillColor=none;align=center;verticalAlign=middle;whiteSpace=wrap;rounded=0;fontSize=15;" parent="1" vertex="1">
          <mxGeometry x="1240" y="-200" width="160" height="30" as="geometry" />
        </mxCell>
        <mxCell id="HanA1OKdP7TFDTROJioc-18" value="$$USclUelPu$$" style="text;strokeColor=none;align=center;fillColor=none;html=1;verticalAlign=middle;whiteSpace=wrap;rounded=0;" parent="1" vertex="1">
          <mxGeometry x="1560" y="-255" width="100" height="30" as="geometry" />
        </mxCell>
        <mxCell id="HV3P0yh9cOvrx5BpRkT5-9" value="" style="edgeStyle=orthogonalEdgeStyle;rounded=0;orthogonalLoop=1;jettySize=auto;html=1;" parent="1" edge="1">
          <mxGeometry relative="1" as="geometry">
            <mxPoint x="240" y="240" as="sourcePoint" />
          </mxGeometry>
        </mxCell>
        <mxCell id="dAHFnxKUKf4HyOokSXOq-44" value="" style="edgeStyle=orthogonalEdgeStyle;rounded=0;orthogonalLoop=1;jettySize=auto;html=1;" parent="1" target="dAHFnxKUKf4HyOokSXOq-43" edge="1">
          <mxGeometry relative="1" as="geometry">
            <mxPoint x="1250" as="sourcePoint" />
          </mxGeometry>
        </mxCell>
        <mxCell id="dAHFnxKUKf4HyOokSXOq-3" value="" style="edgeStyle=orthogonalEdgeStyle;rounded=0;orthogonalLoop=1;jettySize=auto;html=1;entryX=0;entryY=0.5;entryDx=0;entryDy=0;" parent="1" source="dAHFnxKUKf4HyOokSXOq-2" target="dAHFnxKUKf4HyOokSXOq-4" edge="1">
          <mxGeometry relative="1" as="geometry">
            <mxPoint x="-120" y="-519" as="targetPoint" />
          </mxGeometry>
        </mxCell>
        <mxCell id="dAHFnxKUKf4HyOokSXOq-2" value="$$utPu$$" style="text;strokeColor=none;align=center;fillColor=none;html=1;verticalAlign=middle;whiteSpace=wrap;rounded=0;" parent="1" vertex="1">
          <mxGeometry x="-220" y="-534" width="60" height="30" as="geometry" />
        </mxCell>
        <mxCell id="dAHFnxKUKf4HyOokSXOq-4" value="" style="whiteSpace=wrap;html=1;aspect=fixed;" parent="1" vertex="1">
          <mxGeometry x="-120" y="-559" width="80" height="80" as="geometry" />
        </mxCell>
        <mxCell id="dAHFnxKUKf4HyOokSXOq-7" value="" style="endArrow=classic;html=1;rounded=0;" parent="1" edge="1">
          <mxGeometry width="50" height="50" relative="1" as="geometry">
            <mxPoint x="-110" y="-494.2" as="sourcePoint" />
            <mxPoint x="-50" y="-494.2" as="targetPoint" />
          </mxGeometry>
        </mxCell>
        <mxCell id="dAHFnxKUKf4HyOokSXOq-8" value="" style="endArrow=classic;html=1;rounded=0;" parent="1" edge="1">
          <mxGeometry width="50" height="50" relative="1" as="geometry">
            <mxPoint x="-80" y="-494.2" as="sourcePoint" />
            <mxPoint x="-80" y="-544.2" as="targetPoint" />
          </mxGeometry>
        </mxCell>
        <mxCell id="dAHFnxKUKf4HyOokSXOq-9" value="" style="endArrow=none;html=1;rounded=0;" parent="1" edge="1">
          <mxGeometry width="50" height="50" relative="1" as="geometry">
            <mxPoint x="-80" y="-494.2" as="sourcePoint" />
            <mxPoint x="-50" y="-524.2" as="targetPoint" />
          </mxGeometry>
        </mxCell>
        <mxCell id="dAHFnxKUKf4HyOokSXOq-10" value="" style="endArrow=none;html=1;rounded=0;" parent="1" edge="1">
          <mxGeometry width="50" height="50" relative="1" as="geometry">
            <mxPoint x="-80" y="-494.2" as="sourcePoint" />
            <mxPoint x="-110" y="-524.2" as="targetPoint" />
          </mxGeometry>
        </mxCell>
        <mxCell id="dAHFnxKUKf4HyOokSXOq-11" value="&lt;span style=&quot;background-color: initial;&quot;&gt;$$:$$&lt;/span&gt;" style="whiteSpace=wrap;html=1;aspect=fixed;" parent="1" vertex="1">
          <mxGeometry x="40" y="-599" width="80" height="80" as="geometry" />
        </mxCell>
        <mxCell id="dAHFnxKUKf4HyOokSXOq-14" value="" style="endArrow=classic;html=1;rounded=0;exitX=1;exitY=0.5;exitDx=0;exitDy=0;entryX=0;entryY=0.75;entryDx=0;entryDy=0;" parent="1" source="dAHFnxKUKf4HyOokSXOq-4" target="dAHFnxKUKf4HyOokSXOq-11" edge="1">
          <mxGeometry width="50" height="50" relative="1" as="geometry">
            <mxPoint x="380" y="-339" as="sourcePoint" />
            <mxPoint x="430" y="-389" as="targetPoint" />
            <Array as="points">
              <mxPoint y="-519" />
              <mxPoint y="-539" />
            </Array>
          </mxGeometry>
        </mxCell>
        <mxCell id="IMg1KoeKDZ7LWF8RLD5s-9" value="" style="edgeStyle=orthogonalEdgeStyle;rounded=0;orthogonalLoop=1;jettySize=auto;html=1;" edge="1" parent="1" source="dAHFnxKUKf4HyOokSXOq-15" target="IMg1KoeKDZ7LWF8RLD5s-8">
          <mxGeometry relative="1" as="geometry" />
        </mxCell>
        <mxCell id="dAHFnxKUKf4HyOokSXOq-15" value="&lt;font style=&quot;font-size: 10px;&quot;&gt;$$\frac{1}{1+tQScl*s}$$&lt;/font&gt;" style="whiteSpace=wrap;html=1;aspect=fixed;" parent="1" vertex="1">
          <mxGeometry x="160" y="-599" width="80" height="80" as="geometry" />
        </mxCell>
        <mxCell id="dAHFnxKUKf4HyOokSXOq-21" value="" style="endArrow=classic;html=1;rounded=0;exitX=1;exitY=0.5;exitDx=0;exitDy=0;entryX=0;entryY=0.5;entryDx=0;entryDy=0;" parent="1" source="dAHFnxKUKf4HyOokSXOq-11" target="dAHFnxKUKf4HyOokSXOq-15" edge="1">
          <mxGeometry width="50" height="50" relative="1" as="geometry">
            <mxPoint x="90" y="-559" as="sourcePoint" />
            <mxPoint x="160" y="-599" as="targetPoint" />
          </mxGeometry>
        </mxCell>
        <mxCell id="dAHFnxKUKf4HyOokSXOq-25" value="$$itPu$$" style="text;strokeColor=none;align=center;fillColor=none;html=1;verticalAlign=middle;whiteSpace=wrap;rounded=0;" parent="1" vertex="1">
          <mxGeometry x="-220" y="25" width="60" height="30" as="geometry" />
        </mxCell>
        <mxCell id="dAHFnxKUKf4HyOokSXOq-26" value="" style="endArrow=classic;html=1;rounded=0;exitX=1;exitY=0.5;exitDx=0;exitDy=0;entryX=0;entryY=0.5;entryDx=0;entryDy=0;" parent="1" source="dAHFnxKUKf4HyOokSXOq-25" target="IMg1KoeKDZ7LWF8RLD5s-1" edge="1">
          <mxGeometry width="50" height="50" relative="1" as="geometry">
            <mxPoint x="380" y="60" as="sourcePoint" />
            <mxPoint x="-120" y="40" as="targetPoint" />
          </mxGeometry>
        </mxCell>
        <mxCell id="IMg1KoeKDZ7LWF8RLD5s-25" value="" style="edgeStyle=orthogonalEdgeStyle;rounded=0;orthogonalLoop=1;jettySize=auto;html=1;" edge="1" parent="1" source="dAHFnxKUKf4HyOokSXOq-31" target="IMg1KoeKDZ7LWF8RLD5s-24">
          <mxGeometry relative="1" as="geometry" />
        </mxCell>
        <mxCell id="dAHFnxKUKf4HyOokSXOq-31" value="&lt;table style=&quot;&quot;&gt;&lt;tbody&gt;&lt;tr&gt;&lt;td&gt;&lt;font style=&quot;font-size: 12px;&quot;&gt;$$1$$&lt;/font&gt;&lt;/td&gt;&lt;/tr&gt;&lt;tr&gt;&lt;td&gt;&lt;font style=&quot;font-size: 12px;&quot;&gt;$$-1$$&lt;/font&gt;&lt;/td&gt;&lt;/tr&gt;&lt;/tbody&gt;&lt;/table&gt;" style="whiteSpace=wrap;html=1;aspect=fixed;" parent="1" vertex="1">
          <mxGeometry x="320" y="-80" width="80" height="80" as="geometry" />
        </mxCell>
        <mxCell id="IMg1KoeKDZ7LWF8RLD5s-1" value="" style="whiteSpace=wrap;html=1;aspect=fixed;" vertex="1" parent="1">
          <mxGeometry x="-120" width="80" height="80" as="geometry" />
        </mxCell>
        <mxCell id="IMg1KoeKDZ7LWF8RLD5s-2" value="" style="endArrow=classic;html=1;rounded=0;" edge="1" parent="1">
          <mxGeometry width="50" height="50" relative="1" as="geometry">
            <mxPoint x="-110" y="63.80000000000001" as="sourcePoint" />
            <mxPoint x="-50" y="63.80000000000001" as="targetPoint" />
          </mxGeometry>
        </mxCell>
        <mxCell id="IMg1KoeKDZ7LWF8RLD5s-3" value="" style="endArrow=classic;html=1;rounded=0;" edge="1" parent="1">
          <mxGeometry width="50" height="50" relative="1" as="geometry">
            <mxPoint x="-80" y="63.80000000000001" as="sourcePoint" />
            <mxPoint x="-80" y="13.800000000000011" as="targetPoint" />
          </mxGeometry>
        </mxCell>
        <mxCell id="IMg1KoeKDZ7LWF8RLD5s-4" value="" style="endArrow=none;html=1;rounded=0;" edge="1" parent="1">
          <mxGeometry width="50" height="50" relative="1" as="geometry">
            <mxPoint x="-80" y="63.80000000000001" as="sourcePoint" />
            <mxPoint x="-50" y="33.80000000000001" as="targetPoint" />
          </mxGeometry>
        </mxCell>
        <mxCell id="IMg1KoeKDZ7LWF8RLD5s-5" value="" style="endArrow=none;html=1;rounded=0;" edge="1" parent="1">
          <mxGeometry width="50" height="50" relative="1" as="geometry">
            <mxPoint x="-80" y="63.80000000000001" as="sourcePoint" />
            <mxPoint x="-110" y="33.80000000000001" as="targetPoint" />
          </mxGeometry>
        </mxCell>
        <mxCell id="IMg1KoeKDZ7LWF8RLD5s-6" value="$$QGenPu$$" style="text;strokeColor=none;align=center;fillColor=none;html=1;verticalAlign=middle;whiteSpace=wrap;rounded=0;" vertex="1" parent="1">
          <mxGeometry x="-220" y="-614" width="60" height="30" as="geometry" />
        </mxCell>
        <mxCell id="IMg1KoeKDZ7LWF8RLD5s-7" value="" style="endArrow=classic;html=1;rounded=0;exitX=1;exitY=0.5;exitDx=0;exitDy=0;entryX=0;entryY=0.25;entryDx=0;entryDy=0;" edge="1" parent="1" source="IMg1KoeKDZ7LWF8RLD5s-6" target="dAHFnxKUKf4HyOokSXOq-11">
          <mxGeometry width="50" height="50" relative="1" as="geometry">
            <mxPoint x="110" y="-439" as="sourcePoint" />
            <mxPoint x="160" y="-489" as="targetPoint" />
            <Array as="points">
              <mxPoint y="-599" />
              <mxPoint y="-579" />
            </Array>
          </mxGeometry>
        </mxCell>
        <mxCell id="IMg1KoeKDZ7LWF8RLD5s-8" value="&lt;span style=&quot;background-color: initial;&quot;&gt;^ K&lt;/span&gt;" style="whiteSpace=wrap;html=1;aspect=fixed;" vertex="1" parent="1">
          <mxGeometry x="280" y="-599" width="80" height="80" as="geometry" />
        </mxCell>
        <mxCell id="IMg1KoeKDZ7LWF8RLD5s-15" value="" style="edgeStyle=orthogonalEdgeStyle;rounded=0;orthogonalLoop=1;jettySize=auto;html=1;exitX=1;exitY=0.5;exitDx=0;exitDy=0;entryX=0;entryY=0.5;entryDx=0;entryDy=0;" edge="1" parent="1" source="IMg1KoeKDZ7LWF8RLD5s-10" target="IMg1KoeKDZ7LWF8RLD5s-14">
          <mxGeometry relative="1" as="geometry">
            <mxPoint x="120" y="-200" as="sourcePoint" />
            <mxPoint x="160" y="-200" as="targetPoint" />
          </mxGeometry>
        </mxCell>
        <mxCell id="IMg1KoeKDZ7LWF8RLD5s-10" value="&lt;font style=&quot;font-size: 10px;&quot;&gt;$$\frac{1}{1+tIt*s}$$&lt;/font&gt;" style="whiteSpace=wrap;html=1;aspect=fixed;" vertex="1" parent="1">
          <mxGeometry x="40" y="-120" width="80" height="80" as="geometry" />
        </mxCell>
        <mxCell id="IMg1KoeKDZ7LWF8RLD5s-11" value="&lt;font style=&quot;font-size: 10px;&quot;&gt;$$\frac{1}{1+tInv*s}$$&lt;/font&gt;" style="whiteSpace=wrap;html=1;aspect=fixed;" vertex="1" parent="1">
          <mxGeometry x="40" y="120" width="80" height="80" as="geometry" />
        </mxCell>
        <mxCell id="IMg1KoeKDZ7LWF8RLD5s-12" value="" style="endArrow=classic;html=1;rounded=0;exitX=1;exitY=0.25;exitDx=0;exitDy=0;entryX=0;entryY=0.5;entryDx=0;entryDy=0;" edge="1" parent="1" source="IMg1KoeKDZ7LWF8RLD5s-1" target="IMg1KoeKDZ7LWF8RLD5s-10">
          <mxGeometry width="50" height="50" relative="1" as="geometry">
            <mxPoint x="140" y="90" as="sourcePoint" />
            <mxPoint x="190" y="40" as="targetPoint" />
            <Array as="points">
              <mxPoint y="20" />
              <mxPoint y="-80" />
            </Array>
          </mxGeometry>
        </mxCell>
        <mxCell id="IMg1KoeKDZ7LWF8RLD5s-13" value="" style="endArrow=classic;html=1;rounded=0;exitX=1;exitY=0.75;exitDx=0;exitDy=0;entryX=0;entryY=0.5;entryDx=0;entryDy=0;" edge="1" parent="1" source="IMg1KoeKDZ7LWF8RLD5s-1" target="IMg1KoeKDZ7LWF8RLD5s-11">
          <mxGeometry width="50" height="50" relative="1" as="geometry">
            <mxPoint x="20" y="120" as="sourcePoint" />
            <mxPoint x="70" y="70" as="targetPoint" />
            <Array as="points">
              <mxPoint y="60" />
              <mxPoint y="160" />
            </Array>
          </mxGeometry>
        </mxCell>
        <mxCell id="IMg1KoeKDZ7LWF8RLD5s-14" value="&lt;span style=&quot;background-color: initial;&quot;&gt;^ K&lt;/span&gt;" style="whiteSpace=wrap;html=1;aspect=fixed;" vertex="1" parent="1">
          <mxGeometry x="160" y="-120" width="80" height="80" as="geometry" />
        </mxCell>
        <mxCell id="IMg1KoeKDZ7LWF8RLD5s-23" value="" style="edgeStyle=orthogonalEdgeStyle;rounded=0;orthogonalLoop=1;jettySize=auto;html=1;" edge="1" parent="1" source="IMg1KoeKDZ7LWF8RLD5s-16" target="IMg1KoeKDZ7LWF8RLD5s-22">
          <mxGeometry relative="1" as="geometry" />
        </mxCell>
        <mxCell id="IMg1KoeKDZ7LWF8RLD5s-16" value="&lt;table style=&quot;&quot;&gt;&lt;tbody&gt;&lt;tr&gt;&lt;td&gt;&lt;font style=&quot;font-size: 12px;&quot;&gt;$$-1$$&lt;/font&gt;&lt;/td&gt;&lt;/tr&gt;&lt;tr&gt;&lt;td&gt;&lt;font style=&quot;font-size: 12px;&quot;&gt;$$1$$&lt;/font&gt;&lt;/td&gt;&lt;/tr&gt;&lt;/tbody&gt;&lt;/table&gt;" style="whiteSpace=wrap;html=1;aspect=fixed;" vertex="1" parent="1">
          <mxGeometry x="320" y="80" width="80" height="80" as="geometry" />
        </mxCell>
        <mxCell id="IMg1KoeKDZ7LWF8RLD5s-17" value="&lt;span style=&quot;background-color: initial;&quot;&gt;$$ISclLimPu$$&lt;/span&gt;" style="whiteSpace=wrap;html=1;aspect=fixed;" vertex="1" parent="1">
          <mxGeometry x="160" width="80" height="80" as="geometry" />
        </mxCell>
        <mxCell id="IMg1KoeKDZ7LWF8RLD5s-18" value="" style="endArrow=classic;html=1;rounded=0;exitX=1;exitY=0.5;exitDx=0;exitDy=0;entryX=0;entryY=0.75;entryDx=0;entryDy=0;" edge="1" parent="1" source="IMg1KoeKDZ7LWF8RLD5s-17" target="dAHFnxKUKf4HyOokSXOq-31">
          <mxGeometry width="50" height="50" relative="1" as="geometry">
            <mxPoint y="20" as="sourcePoint" />
            <mxPoint x="50" y="-30" as="targetPoint" />
            <Array as="points">
              <mxPoint x="280" y="40" />
              <mxPoint x="280" y="-20" />
            </Array>
          </mxGeometry>
        </mxCell>
        <mxCell id="IMg1KoeKDZ7LWF8RLD5s-19" value="" style="endArrow=classic;html=1;rounded=0;exitX=1;exitY=0.5;exitDx=0;exitDy=0;entryX=0;entryY=0.25;entryDx=0;entryDy=0;" edge="1" parent="1" source="IMg1KoeKDZ7LWF8RLD5s-17" target="IMg1KoeKDZ7LWF8RLD5s-16">
          <mxGeometry width="50" height="50" relative="1" as="geometry">
            <mxPoint y="20" as="sourcePoint" />
            <mxPoint x="50" y="-30" as="targetPoint" />
            <Array as="points">
              <mxPoint x="280" y="40" />
              <mxPoint x="280" y="100" />
            </Array>
          </mxGeometry>
        </mxCell>
        <mxCell id="IMg1KoeKDZ7LWF8RLD5s-20" value="" style="endArrow=classic;html=1;rounded=0;exitX=1;exitY=0.5;exitDx=0;exitDy=0;entryX=0;entryY=0.25;entryDx=0;entryDy=0;" edge="1" parent="1" source="IMg1KoeKDZ7LWF8RLD5s-14" target="dAHFnxKUKf4HyOokSXOq-31">
          <mxGeometry width="50" height="50" relative="1" as="geometry">
            <mxPoint y="20" as="sourcePoint" />
            <mxPoint x="50" y="-30" as="targetPoint" />
            <Array as="points">
              <mxPoint x="280" y="-80" />
              <mxPoint x="280" y="-60" />
            </Array>
          </mxGeometry>
        </mxCell>
        <mxCell id="IMg1KoeKDZ7LWF8RLD5s-21" value="" style="endArrow=classic;html=1;rounded=0;exitX=1;exitY=0.5;exitDx=0;exitDy=0;entryX=0;entryY=0.75;entryDx=0;entryDy=0;" edge="1" parent="1" source="IMg1KoeKDZ7LWF8RLD5s-11" target="IMg1KoeKDZ7LWF8RLD5s-16">
          <mxGeometry width="50" height="50" relative="1" as="geometry">
            <mxPoint y="20" as="sourcePoint" />
            <mxPoint x="50" y="-30" as="targetPoint" />
            <Array as="points">
              <mxPoint x="280" y="160" />
              <mxPoint x="280" y="140" />
            </Array>
          </mxGeometry>
        </mxCell>
        <mxCell id="IMg1KoeKDZ7LWF8RLD5s-22" value="$$ISclInvPu$$" style="text;strokeColor=none;align=center;fillColor=none;html=1;verticalAlign=middle;whiteSpace=wrap;rounded=0;" vertex="1" parent="1">
          <mxGeometry x="640" y="105" width="80" height="30" as="geometry" />
        </mxCell>
        <mxCell id="IMg1KoeKDZ7LWF8RLD5s-24" value="$$ISclErrPu$$" style="text;strokeColor=none;align=center;fillColor=none;html=1;verticalAlign=middle;whiteSpace=wrap;rounded=0;" vertex="1" parent="1">
          <mxGeometry x="640" y="-55" width="80" height="30" as="geometry" />
        </mxCell>
        <mxCell id="IMg1KoeKDZ7LWF8RLD5s-26" value="&lt;table style=&quot;&quot;&gt;&lt;tbody&gt;&lt;tr&gt;&lt;td&gt;&lt;font style=&quot;font-size: 12px;&quot;&gt;$$1$$&lt;/font&gt;&lt;/td&gt;&lt;/tr&gt;&lt;tr&gt;&lt;td&gt;&lt;font style=&quot;font-size: 12px;&quot;&gt;$$-1$$&lt;/font&gt;&lt;/td&gt;&lt;/tr&gt;&lt;/tbody&gt;&lt;/table&gt;" style="whiteSpace=wrap;html=1;aspect=fixed;" vertex="1" parent="1">
          <mxGeometry x="480" y="-560" width="80" height="80" as="geometry" />
        </mxCell>
        <mxCell id="IMg1KoeKDZ7LWF8RLD5s-27" value="" style="endArrow=classic;html=1;rounded=0;exitX=1;exitY=0.5;exitDx=0;exitDy=0;entryX=0;entryY=0.25;entryDx=0;entryDy=0;" edge="1" parent="1" source="IMg1KoeKDZ7LWF8RLD5s-8" target="IMg1KoeKDZ7LWF8RLD5s-26">
          <mxGeometry width="50" height="50" relative="1" as="geometry">
            <mxPoint x="570" y="-200" as="sourcePoint" />
            <mxPoint x="620" y="-250" as="targetPoint" />
            <Array as="points">
              <mxPoint x="440" y="-559" />
              <mxPoint x="440" y="-540" />
            </Array>
          </mxGeometry>
        </mxCell>
        <mxCell id="IMg1KoeKDZ7LWF8RLD5s-28" value="&lt;table style=&quot;&quot;&gt;&lt;tbody&gt;&lt;tr&gt;&lt;td&gt;&lt;font style=&quot;font-size: 12px;&quot;&gt;$$-1$$&lt;/font&gt;&lt;/td&gt;&lt;/tr&gt;&lt;tr&gt;&lt;td&gt;&lt;font style=&quot;font-size: 12px;&quot;&gt;$$-1$$&lt;/font&gt;&lt;/td&gt;&lt;/tr&gt;&lt;/tbody&gt;&lt;/table&gt;" style="whiteSpace=wrap;html=1;aspect=fixed;" vertex="1" parent="1">
          <mxGeometry x="480" y="-200" width="80" height="80" as="geometry" />
        </mxCell>
        <mxCell id="IMg1KoeKDZ7LWF8RLD5s-29" value="" style="endArrow=classic;html=1;rounded=0;exitX=1;exitY=0.5;exitDx=0;exitDy=0;entryX=0;entryY=0.75;entryDx=0;entryDy=0;" edge="1" parent="1" source="IMg1KoeKDZ7LWF8RLD5s-8" target="IMg1KoeKDZ7LWF8RLD5s-28">
          <mxGeometry width="50" height="50" relative="1" as="geometry">
            <mxPoint x="570" y="-200" as="sourcePoint" />
            <mxPoint x="620" y="-250" as="targetPoint" />
            <Array as="points">
              <mxPoint x="400" y="-559" />
              <mxPoint x="400" y="-140" />
            </Array>
          </mxGeometry>
        </mxCell>
        <mxCell id="IMg1KoeKDZ7LWF8RLD5s-30" value="&lt;span style=&quot;background-color: initial;&quot;&gt;$$IqMinPu$$&lt;/span&gt;" style="whiteSpace=wrap;html=1;aspect=fixed;" vertex="1" parent="1">
          <mxGeometry x="480" y="-380" width="80" height="80" as="geometry" />
        </mxCell>
        <mxCell id="IMg1KoeKDZ7LWF8RLD5s-31" value="" style="endArrow=classic;html=1;rounded=0;exitX=0;exitY=0.5;exitDx=0;exitDy=0;entryX=0;entryY=0.25;entryDx=0;entryDy=0;" edge="1" parent="1" source="IMg1KoeKDZ7LWF8RLD5s-30" target="IMg1KoeKDZ7LWF8RLD5s-28">
          <mxGeometry width="50" height="50" relative="1" as="geometry">
            <mxPoint x="570" y="-200" as="sourcePoint" />
            <mxPoint x="620" y="-250" as="targetPoint" />
            <Array as="points">
              <mxPoint x="440" y="-340" />
              <mxPoint x="440" y="-180" />
            </Array>
          </mxGeometry>
        </mxCell>
        <mxCell id="IMg1KoeKDZ7LWF8RLD5s-32" value="" style="endArrow=classic;html=1;rounded=0;exitX=0;exitY=0.5;exitDx=0;exitDy=0;entryX=0;entryY=0.75;entryDx=0;entryDy=0;" edge="1" parent="1" source="IMg1KoeKDZ7LWF8RLD5s-30" target="IMg1KoeKDZ7LWF8RLD5s-26">
          <mxGeometry width="50" height="50" relative="1" as="geometry">
            <mxPoint x="570" y="-200" as="sourcePoint" />
            <mxPoint x="620" y="-250" as="targetPoint" />
            <Array as="points">
              <mxPoint x="440" y="-340" />
              <mxPoint x="440" y="-500" />
            </Array>
          </mxGeometry>
        </mxCell>
        <mxCell id="IMg1KoeKDZ7LWF8RLD5s-33" value="&lt;span style=&quot;background-color: initial;&quot;&gt;$$min$$&lt;/span&gt;" style="whiteSpace=wrap;html=1;aspect=fixed;" vertex="1" parent="1">
          <mxGeometry x="680" y="-520" width="80" height="80" as="geometry" />
        </mxCell>
        <mxCell id="IMg1KoeKDZ7LWF8RLD5s-34" value="&lt;span style=&quot;background-color: initial;&quot;&gt;$$min$$&lt;/span&gt;" style="whiteSpace=wrap;html=1;aspect=fixed;" vertex="1" parent="1">
          <mxGeometry x="680" y="-240" width="80" height="80" as="geometry" />
        </mxCell>
        <mxCell id="IMg1KoeKDZ7LWF8RLD5s-35" value="" style="endArrow=classic;html=1;rounded=0;exitX=1;exitY=0.5;exitDx=0;exitDy=0;entryX=0;entryY=0.25;entryDx=0;entryDy=0;" edge="1" parent="1" source="IMg1KoeKDZ7LWF8RLD5s-26" target="IMg1KoeKDZ7LWF8RLD5s-33">
          <mxGeometry width="50" height="50" relative="1" as="geometry">
            <mxPoint x="570" y="-200" as="sourcePoint" />
            <mxPoint x="620" y="-250" as="targetPoint" />
            <Array as="points">
              <mxPoint x="600" y="-520" />
              <mxPoint x="600" y="-500" />
            </Array>
          </mxGeometry>
        </mxCell>
        <mxCell id="IMg1KoeKDZ7LWF8RLD5s-37" value="" style="endArrow=none;dashed=1;html=1;rounded=0;exitX=1;exitY=0.5;exitDx=0;exitDy=0;entryX=0;entryY=0.75;entryDx=0;entryDy=0;" edge="1" parent="1" source="IMg1KoeKDZ7LWF8RLD5s-28" target="IMg1KoeKDZ7LWF8RLD5s-34">
          <mxGeometry width="50" height="50" relative="1" as="geometry">
            <mxPoint x="570" y="-200" as="sourcePoint" />
            <mxPoint x="620" y="-250" as="targetPoint" />
            <Array as="points">
              <mxPoint x="640" y="-160" />
              <mxPoint x="640" y="-180" />
            </Array>
          </mxGeometry>
        </mxCell>
        <mxCell id="IMg1KoeKDZ7LWF8RLD5s-38" value="" style="endArrow=classic;html=1;rounded=0;exitX=1;exitY=0.5;exitDx=0;exitDy=0;entryX=0;entryY=0.25;entryDx=0;entryDy=0;" edge="1" parent="1" source="dAHFnxKUKf4HyOokSXOq-31" target="IMg1KoeKDZ7LWF8RLD5s-34">
          <mxGeometry width="50" height="50" relative="1" as="geometry">
            <mxPoint x="530" y="-280" as="sourcePoint" />
            <mxPoint x="580" y="-330" as="targetPoint" />
            <Array as="points">
              <mxPoint x="600" y="-40" />
              <mxPoint x="600" y="-220" />
            </Array>
          </mxGeometry>
        </mxCell>
        <mxCell id="IMg1KoeKDZ7LWF8RLD5s-39" value="" style="endArrow=classic;html=1;rounded=0;exitX=1;exitY=0.5;exitDx=0;exitDy=0;entryX=0;entryY=0.75;entryDx=0;entryDy=0;" edge="1" parent="1" source="dAHFnxKUKf4HyOokSXOq-31" target="IMg1KoeKDZ7LWF8RLD5s-33">
          <mxGeometry width="50" height="50" relative="1" as="geometry">
            <mxPoint x="530" y="-280" as="sourcePoint" />
            <mxPoint x="580" y="-320" as="targetPoint" />
            <Array as="points">
              <mxPoint x="600" y="-40" />
              <mxPoint x="600" y="-460" />
            </Array>
          </mxGeometry>
        </mxCell>
        <mxCell id="IMg1KoeKDZ7LWF8RLD5s-40" value="" style="whiteSpace=wrap;html=1;aspect=fixed;" vertex="1" parent="1">
          <mxGeometry x="1080" y="-479" width="80" height="80" as="geometry" />
        </mxCell>
        <mxCell id="IMg1KoeKDZ7LWF8RLD5s-41" value="" style="endArrow=none;html=1;startArrow=none;" edge="1" parent="1" source="IMg1KoeKDZ7LWF8RLD5s-49">
          <mxGeometry width="50" height="50" relative="1" as="geometry">
            <mxPoint x="1140" y="-439" as="sourcePoint" />
            <mxPoint x="1160" y="-439" as="targetPoint" />
          </mxGeometry>
        </mxCell>
        <mxCell id="IMg1KoeKDZ7LWF8RLD5s-42" value="" style="endArrow=none;html=1;" edge="1" parent="1">
          <mxGeometry width="50" height="50" relative="1" as="geometry">
            <mxPoint x="1071" y="-459" as="sourcePoint" />
            <mxPoint x="1101" y="-459" as="targetPoint" />
          </mxGeometry>
        </mxCell>
        <mxCell id="IMg1KoeKDZ7LWF8RLD5s-43" value="" style="endArrow=none;html=1;" edge="1" parent="1">
          <mxGeometry width="50" height="50" relative="1" as="geometry">
            <mxPoint x="1070" y="-439.20000000000005" as="sourcePoint" />
            <mxPoint x="1100" y="-439.20000000000005" as="targetPoint" />
          </mxGeometry>
        </mxCell>
        <mxCell id="IMg1KoeKDZ7LWF8RLD5s-44" value="" style="endArrow=none;html=1;" edge="1" parent="1">
          <mxGeometry width="50" height="50" relative="1" as="geometry">
            <mxPoint x="1070" y="-419" as="sourcePoint" />
            <mxPoint x="1100" y="-419" as="targetPoint" />
          </mxGeometry>
        </mxCell>
        <mxCell id="IMg1KoeKDZ7LWF8RLD5s-45" value="" style="shape=waypoint;sketch=0;fillStyle=solid;size=4;pointerEvents=1;points=[];fillColor=none;resizable=0;rotatable=0;perimeter=centerPerimeter;snapToPoint=1;" vertex="1" parent="1">
          <mxGeometry x="1090" y="-469" width="20" height="20" as="geometry" />
        </mxCell>
        <mxCell id="IMg1KoeKDZ7LWF8RLD5s-46" value="" style="shape=waypoint;sketch=0;fillStyle=solid;size=4;pointerEvents=1;points=[];fillColor=none;resizable=0;rotatable=0;perimeter=centerPerimeter;snapToPoint=1;" vertex="1" parent="1">
          <mxGeometry x="1090" y="-449" width="20" height="20" as="geometry" />
        </mxCell>
        <mxCell id="IMg1KoeKDZ7LWF8RLD5s-47" value="" style="shape=waypoint;sketch=0;fillStyle=solid;size=4;pointerEvents=1;points=[];fillColor=none;resizable=0;rotatable=0;perimeter=centerPerimeter;snapToPoint=1;" vertex="1" parent="1">
          <mxGeometry x="1090" y="-429" width="20" height="20" as="geometry" />
        </mxCell>
        <mxCell id="IMg1KoeKDZ7LWF8RLD5s-48" value="" style="endArrow=none;html=1;" edge="1" parent="1" target="IMg1KoeKDZ7LWF8RLD5s-49">
          <mxGeometry width="50" height="50" relative="1" as="geometry">
            <mxPoint x="1140" y="-439" as="sourcePoint" />
            <mxPoint x="1160" y="-439" as="targetPoint" />
          </mxGeometry>
        </mxCell>
        <mxCell id="IMg1KoeKDZ7LWF8RLD5s-49" value="" style="shape=waypoint;sketch=0;fillStyle=solid;size=4;pointerEvents=1;points=[];fillColor=none;resizable=0;rotatable=0;perimeter=centerPerimeter;snapToPoint=1;" vertex="1" parent="1">
          <mxGeometry x="1131" y="-449" width="20" height="20" as="geometry" />
        </mxCell>
        <mxCell id="IMg1KoeKDZ7LWF8RLD5s-50" value="" style="endArrow=none;html=1;" edge="1" parent="1">
          <mxGeometry width="50" height="50" relative="1" as="geometry">
            <mxPoint x="1100" y="-429" as="sourcePoint" />
            <mxPoint x="1140" y="-439" as="targetPoint" />
          </mxGeometry>
        </mxCell>
        <mxCell id="IMg1KoeKDZ7LWF8RLD5s-51" value="&lt;span style=&quot;background-color: initial;&quot;&gt;$$Sw1$$&lt;/span&gt;" style="whiteSpace=wrap;html=1;aspect=fixed;" vertex="1" parent="1">
          <mxGeometry x="680" y="-380" width="80" height="80" as="geometry" />
        </mxCell>
        <mxCell id="IMg1KoeKDZ7LWF8RLD5s-52" value="" style="endArrow=classic;html=1;rounded=0;exitX=1;exitY=0.5;exitDx=0;exitDy=0;" edge="1" parent="1" source="IMg1KoeKDZ7LWF8RLD5s-33" target="IMg1KoeKDZ7LWF8RLD5s-45">
          <mxGeometry width="50" height="50" relative="1" as="geometry">
            <mxPoint x="810" y="-330" as="sourcePoint" />
            <mxPoint x="860" y="-380" as="targetPoint" />
            <Array as="points">
              <mxPoint x="1040" y="-480" />
              <mxPoint x="1040" y="-459" />
            </Array>
          </mxGeometry>
        </mxCell>
        <mxCell id="IMg1KoeKDZ7LWF8RLD5s-53" value="" style="whiteSpace=wrap;html=1;aspect=fixed;" vertex="1" parent="1">
          <mxGeometry x="1080" y="-280" width="80" height="80" as="geometry" />
        </mxCell>
        <mxCell id="IMg1KoeKDZ7LWF8RLD5s-54" value="" style="endArrow=none;html=1;startArrow=none;" edge="1" source="IMg1KoeKDZ7LWF8RLD5s-62" parent="1">
          <mxGeometry width="50" height="50" relative="1" as="geometry">
            <mxPoint x="1140" y="-240" as="sourcePoint" />
            <mxPoint x="1160" y="-240" as="targetPoint" />
          </mxGeometry>
        </mxCell>
        <mxCell id="IMg1KoeKDZ7LWF8RLD5s-55" value="" style="endArrow=none;html=1;" edge="1" parent="1">
          <mxGeometry width="50" height="50" relative="1" as="geometry">
            <mxPoint x="1071" y="-260" as="sourcePoint" />
            <mxPoint x="1101" y="-260" as="targetPoint" />
          </mxGeometry>
        </mxCell>
        <mxCell id="IMg1KoeKDZ7LWF8RLD5s-56" value="" style="endArrow=none;html=1;" edge="1" parent="1">
          <mxGeometry width="50" height="50" relative="1" as="geometry">
            <mxPoint x="1070" y="-240.20000000000005" as="sourcePoint" />
            <mxPoint x="1100" y="-240.20000000000005" as="targetPoint" />
          </mxGeometry>
        </mxCell>
        <mxCell id="IMg1KoeKDZ7LWF8RLD5s-57" value="" style="endArrow=none;html=1;" edge="1" parent="1">
          <mxGeometry width="50" height="50" relative="1" as="geometry">
            <mxPoint x="1070" y="-220" as="sourcePoint" />
            <mxPoint x="1100" y="-220" as="targetPoint" />
          </mxGeometry>
        </mxCell>
        <mxCell id="IMg1KoeKDZ7LWF8RLD5s-58" value="" style="shape=waypoint;sketch=0;fillStyle=solid;size=4;pointerEvents=1;points=[];fillColor=none;resizable=0;rotatable=0;perimeter=centerPerimeter;snapToPoint=1;" vertex="1" parent="1">
          <mxGeometry x="1090" y="-270" width="20" height="20" as="geometry" />
        </mxCell>
        <mxCell id="IMg1KoeKDZ7LWF8RLD5s-59" value="" style="shape=waypoint;sketch=0;fillStyle=solid;size=4;pointerEvents=1;points=[];fillColor=none;resizable=0;rotatable=0;perimeter=centerPerimeter;snapToPoint=1;" vertex="1" parent="1">
          <mxGeometry x="1090" y="-250" width="20" height="20" as="geometry" />
        </mxCell>
        <mxCell id="IMg1KoeKDZ7LWF8RLD5s-60" value="" style="shape=waypoint;sketch=0;fillStyle=solid;size=4;pointerEvents=1;points=[];fillColor=none;resizable=0;rotatable=0;perimeter=centerPerimeter;snapToPoint=1;" vertex="1" parent="1">
          <mxGeometry x="1090" y="-230" width="20" height="20" as="geometry" />
        </mxCell>
        <mxCell id="IMg1KoeKDZ7LWF8RLD5s-61" value="" style="endArrow=none;html=1;" edge="1" target="IMg1KoeKDZ7LWF8RLD5s-62" parent="1">
          <mxGeometry width="50" height="50" relative="1" as="geometry">
            <mxPoint x="1140" y="-240" as="sourcePoint" />
            <mxPoint x="1160" y="-240" as="targetPoint" />
          </mxGeometry>
        </mxCell>
        <mxCell id="IMg1KoeKDZ7LWF8RLD5s-62" value="" style="shape=waypoint;sketch=0;fillStyle=solid;size=4;pointerEvents=1;points=[];fillColor=none;resizable=0;rotatable=0;perimeter=centerPerimeter;snapToPoint=1;" vertex="1" parent="1">
          <mxGeometry x="1131" y="-250" width="20" height="20" as="geometry" />
        </mxCell>
        <mxCell id="IMg1KoeKDZ7LWF8RLD5s-63" value="" style="endArrow=none;html=1;" edge="1" parent="1">
          <mxGeometry width="50" height="50" relative="1" as="geometry">
            <mxPoint x="1100" y="-230" as="sourcePoint" />
            <mxPoint x="1140" y="-240" as="targetPoint" />
          </mxGeometry>
        </mxCell>
        <mxCell id="IMg1KoeKDZ7LWF8RLD5s-64" value="" style="endArrow=none;dashed=1;html=1;rounded=0;exitX=1;exitY=0.5;exitDx=0;exitDy=0;entryX=0.4;entryY=0.294;entryDx=0;entryDy=0;entryPerimeter=0;" edge="1" parent="1" source="IMg1KoeKDZ7LWF8RLD5s-51" target="IMg1KoeKDZ7LWF8RLD5s-46">
          <mxGeometry width="50" height="50" relative="1" as="geometry">
            <mxPoint x="870" y="-280" as="sourcePoint" />
            <mxPoint x="920" y="-330" as="targetPoint" />
            <Array as="points">
              <mxPoint x="840" y="-340" />
              <mxPoint x="840" y="-439" />
            </Array>
          </mxGeometry>
        </mxCell>
        <mxCell id="IMg1KoeKDZ7LWF8RLD5s-65" value="" style="endArrow=classic;html=1;rounded=0;exitX=1;exitY=0.5;exitDx=0;exitDy=0;" edge="1" parent="1" source="IMg1KoeKDZ7LWF8RLD5s-34" target="IMg1KoeKDZ7LWF8RLD5s-58">
          <mxGeometry width="50" height="50" relative="1" as="geometry">
            <mxPoint x="870" y="-280" as="sourcePoint" />
            <mxPoint x="920" y="-330" as="targetPoint" />
            <Array as="points">
              <mxPoint x="800" y="-200" />
              <mxPoint x="800" y="-260" />
            </Array>
          </mxGeometry>
        </mxCell>
        <mxCell id="IMg1KoeKDZ7LWF8RLD5s-66" value="" style="endArrow=none;dashed=1;html=1;rounded=0;exitX=1;exitY=0.5;exitDx=0;exitDy=0;" edge="1" parent="1" source="IMg1KoeKDZ7LWF8RLD5s-51" target="IMg1KoeKDZ7LWF8RLD5s-59">
          <mxGeometry width="50" height="50" relative="1" as="geometry">
            <mxPoint x="810" y="-315" as="sourcePoint" />
            <mxPoint x="860" y="-365" as="targetPoint" />
            <Array as="points">
              <mxPoint x="840" y="-340" />
              <mxPoint x="840" y="-240" />
            </Array>
          </mxGeometry>
        </mxCell>
        <mxCell id="IMg1KoeKDZ7LWF8RLD5s-69" value="$$ISclErrPu \hspace{2 mm} or \hspace{2 mm} 0$$" style="text;strokeColor=none;align=center;fillColor=none;html=1;verticalAlign=middle;whiteSpace=wrap;rounded=0;" vertex="1" parent="1">
          <mxGeometry x="870" y="-414" width="130" height="30" as="geometry" />
        </mxCell>
        <mxCell id="IMg1KoeKDZ7LWF8RLD5s-71" value="$$ISclErrPu \hspace{2 mm} or \hspace{2 mm} 0$$" style="text;strokeColor=none;align=center;fillColor=none;html=1;verticalAlign=middle;whiteSpace=wrap;rounded=0;" vertex="1" parent="1">
          <mxGeometry x="870" y="-215" width="130" height="30" as="geometry" />
        </mxCell>
        <mxCell id="IMg1KoeKDZ7LWF8RLD5s-72" value="" style="endArrow=classic;html=1;rounded=0;exitX=1;exitY=0.5;exitDx=0;exitDy=0;" edge="1" parent="1" source="IMg1KoeKDZ7LWF8RLD5s-71" target="IMg1KoeKDZ7LWF8RLD5s-60">
          <mxGeometry width="50" height="50" relative="1" as="geometry">
            <mxPoint x="920" y="-170" as="sourcePoint" />
            <mxPoint x="970" y="-220" as="targetPoint" />
            <Array as="points">
              <mxPoint x="1040" y="-200" />
              <mxPoint x="1040" y="-220" />
            </Array>
          </mxGeometry>
        </mxCell>
        <mxCell id="IMg1KoeKDZ7LWF8RLD5s-73" value="" style="endArrow=classic;html=1;rounded=0;exitX=1;exitY=0.5;exitDx=0;exitDy=0;entryX=0.261;entryY=0.489;entryDx=0;entryDy=0;entryPerimeter=0;" edge="1" parent="1" source="IMg1KoeKDZ7LWF8RLD5s-69" target="IMg1KoeKDZ7LWF8RLD5s-47">
          <mxGeometry width="50" height="50" relative="1" as="geometry">
            <mxPoint x="1035" y="-458" as="sourcePoint" />
            <mxPoint x="1025" y="-359" as="targetPoint" />
            <Array as="points">
              <mxPoint x="1040" y="-399" />
              <mxPoint x="1040" y="-419" />
            </Array>
          </mxGeometry>
        </mxCell>
        <mxCell id="IMg1KoeKDZ7LWF8RLD5s-74" style="edgeStyle=orthogonalEdgeStyle;rounded=0;orthogonalLoop=1;jettySize=auto;html=1;exitX=0.5;exitY=1;exitDx=0;exitDy=0;" edge="1" source="IMg1KoeKDZ7LWF8RLD5s-76" parent="1">
          <mxGeometry relative="1" as="geometry">
            <mxPoint x="1240.2" y="-209.79999999999995" as="targetPoint" />
          </mxGeometry>
        </mxCell>
        <mxCell id="IMg1KoeKDZ7LWF8RLD5s-75" value="" style="edgeStyle=orthogonalEdgeStyle;rounded=0;orthogonalLoop=1;jettySize=auto;html=1;entryX=0;entryY=0.5;entryDx=0;entryDy=0;exitX=1;exitY=0.5;exitDx=0;exitDy=0;" edge="1" source="IMg1KoeKDZ7LWF8RLD5s-76" parent="1" target="qLZYFt0uQZEpN5fuRu8l-6">
          <mxGeometry relative="1" as="geometry">
            <mxPoint x="1320" y="-240" as="targetPoint" />
          </mxGeometry>
        </mxCell>
        <mxCell id="IMg1KoeKDZ7LWF8RLD5s-76" value="&lt;font style=&quot;font-size: 8px;&quot;&gt;$$KpUex+\frac{KiUex}{s}$$&lt;/font&gt;" style="rounded=0;whiteSpace=wrap;html=1;" vertex="1" parent="1">
          <mxGeometry x="1200" y="-280" width="80" height="80" as="geometry" />
        </mxCell>
        <mxCell id="IMg1KoeKDZ7LWF8RLD5s-77" value="" style="endArrow=none;html=1;exitX=0.5;exitY=0;exitDx=0;exitDy=0;" edge="1" source="IMg1KoeKDZ7LWF8RLD5s-76" parent="1">
          <mxGeometry width="50" height="50" relative="1" as="geometry">
            <mxPoint x="1240" y="-270" as="sourcePoint" />
            <mxPoint x="1260" y="-290" as="targetPoint" />
          </mxGeometry>
        </mxCell>
        <mxCell id="IMg1KoeKDZ7LWF8RLD5s-78" value="" style="endArrow=none;html=1;" edge="1" parent="1">
          <mxGeometry width="50" height="50" relative="1" as="geometry">
            <mxPoint x="1260" y="-290" as="sourcePoint" />
            <mxPoint x="1280" y="-290" as="targetPoint" />
          </mxGeometry>
        </mxCell>
        <mxCell id="IMg1KoeKDZ7LWF8RLD5s-79" value="&lt;font style=&quot;font-size: 9px;&quot;&gt;$$VSclMaxPu$$&lt;/font&gt;" style="text;html=1;strokeColor=none;fillColor=none;align=center;verticalAlign=middle;whiteSpace=wrap;rounded=0;fontSize=15;" vertex="1" parent="1">
          <mxGeometry x="1200" y="-320" width="160" height="30" as="geometry" />
        </mxCell>
        <mxCell id="IMg1KoeKDZ7LWF8RLD5s-80" value="" style="endArrow=none;html=1;" edge="1" parent="1">
          <mxGeometry width="50" height="50" relative="1" as="geometry">
            <mxPoint x="1201" y="-190" as="sourcePoint" />
            <mxPoint x="1181" y="-190" as="targetPoint" />
          </mxGeometry>
        </mxCell>
        <mxCell id="IMg1KoeKDZ7LWF8RLD5s-81" value="" style="endArrow=none;html=1;exitX=0.5;exitY=0;exitDx=0;exitDy=0;entryX=0.25;entryY=1;entryDx=0;entryDy=0;" edge="1" target="IMg1KoeKDZ7LWF8RLD5s-76" parent="1">
          <mxGeometry width="50" height="50" relative="1" as="geometry">
            <mxPoint x="1201" y="-190" as="sourcePoint" />
            <mxPoint x="1221" y="-210" as="targetPoint" />
          </mxGeometry>
        </mxCell>
        <mxCell id="IMg1KoeKDZ7LWF8RLD5s-82" value="&lt;font style=&quot;font-size: 9px;&quot;&gt;$$VSclMinPu$$&lt;/font&gt;" style="text;html=1;strokeColor=none;fillColor=none;align=center;verticalAlign=middle;whiteSpace=wrap;rounded=0;fontSize=15;" vertex="1" parent="1">
          <mxGeometry x="1120" y="-194" width="120" height="30" as="geometry" />
        </mxCell>
        <mxCell id="IMg1KoeKDZ7LWF8RLD5s-83" value="" style="endArrow=classic;html=1;rounded=0;exitX=0.544;exitY=0.656;exitDx=0;exitDy=0;exitPerimeter=0;entryX=0;entryY=0.5;entryDx=0;entryDy=0;" edge="1" parent="1" source="IMg1KoeKDZ7LWF8RLD5s-62" target="IMg1KoeKDZ7LWF8RLD5s-76">
          <mxGeometry width="50" height="50" relative="1" as="geometry">
            <mxPoint x="1200" y="-240" as="sourcePoint" />
            <mxPoint x="1250" y="-290" as="targetPoint" />
          </mxGeometry>
        </mxCell>
        <mxCell id="IMg1KoeKDZ7LWF8RLD5s-84" value="" style="endArrow=classic;html=1;rounded=0;entryX=0;entryY=0.5;entryDx=0;entryDy=0;" edge="1" parent="1" source="IMg1KoeKDZ7LWF8RLD5s-49" target="GCO7xrDp6TmdYOZJOnFd-99">
          <mxGeometry width="50" height="50" relative="1" as="geometry">
            <mxPoint x="1200" y="-319" as="sourcePoint" />
            <mxPoint x="1250" y="-369" as="targetPoint" />
          </mxGeometry>
        </mxCell>
        <mxCell id="IMg1KoeKDZ7LWF8RLD5s-98" value="" style="edgeStyle=orthogonalEdgeStyle;rounded=0;orthogonalLoop=1;jettySize=auto;html=1;" edge="1" parent="1" source="IMg1KoeKDZ7LWF8RLD5s-91" target="IMg1KoeKDZ7LWF8RLD5s-97">
          <mxGeometry relative="1" as="geometry" />
        </mxCell>
        <mxCell id="IMg1KoeKDZ7LWF8RLD5s-91" value="" style="whiteSpace=wrap;html=1;aspect=fixed;" vertex="1" parent="1">
          <mxGeometry x="1320" y="-480" width="80" height="80" as="geometry" />
        </mxCell>
        <mxCell id="IMg1KoeKDZ7LWF8RLD5s-92" value="" style="endArrow=none;html=1;" edge="1" parent="1">
          <mxGeometry width="50" height="50" relative="1" as="geometry">
            <mxPoint x="1348" y="-426" as="sourcePoint" />
            <mxPoint x="1372" y="-456" as="targetPoint" />
          </mxGeometry>
        </mxCell>
        <mxCell id="IMg1KoeKDZ7LWF8RLD5s-93" value="" style="endArrow=none;html=1;" edge="1" parent="1">
          <mxGeometry width="50" height="50" relative="1" as="geometry">
            <mxPoint x="1372" y="-456" as="sourcePoint" />
            <mxPoint x="1392" y="-456" as="targetPoint" />
          </mxGeometry>
        </mxCell>
        <mxCell id="IMg1KoeKDZ7LWF8RLD5s-94" value="&lt;font style=&quot;font-size: 8px;&quot;&gt;$$999$$&lt;/font&gt;" style="text;html=1;strokeColor=none;fillColor=none;align=center;verticalAlign=middle;whiteSpace=wrap;rounded=0;fontSize=15;" vertex="1" parent="1">
          <mxGeometry x="1320" y="-510" width="160" height="30" as="geometry" />
        </mxCell>
        <mxCell id="IMg1KoeKDZ7LWF8RLD5s-95" value="" style="endArrow=none;html=1;" edge="1" parent="1">
          <mxGeometry width="50" height="50" relative="1" as="geometry">
            <mxPoint x="1348" y="-426" as="sourcePoint" />
            <mxPoint x="1328" y="-426" as="targetPoint" />
          </mxGeometry>
        </mxCell>
        <mxCell id="IMg1KoeKDZ7LWF8RLD5s-96" value="&lt;font style=&quot;font-size: 9px;&quot;&gt;$$0$$&lt;/font&gt;" style="text;html=1;strokeColor=none;fillColor=none;align=center;verticalAlign=middle;whiteSpace=wrap;rounded=0;fontSize=15;" vertex="1" parent="1">
          <mxGeometry x="1240" y="-400" width="160" height="30" as="geometry" />
        </mxCell>
        <mxCell id="IMg1KoeKDZ7LWF8RLD5s-97" value="&lt;span style=&quot;background-color: initial;&quot;&gt;$$-1$$&lt;/span&gt;" style="whiteSpace=wrap;html=1;aspect=fixed;" vertex="1" parent="1">
          <mxGeometry x="1440" y="-480" width="80" height="80" as="geometry" />
        </mxCell>
        <mxCell id="IMg1KoeKDZ7LWF8RLD5s-100" value="" style="endArrow=classic;html=1;rounded=0;exitX=1;exitY=0.5;exitDx=0;exitDy=0;entryX=0;entryY=0.5;entryDx=0;entryDy=0;" edge="1" parent="1" source="qLZYFt0uQZEpN5fuRu8l-6" target="HanA1OKdP7TFDTROJioc-18">
          <mxGeometry width="50" height="50" relative="1" as="geometry">
            <mxPoint x="1590" y="-330" as="sourcePoint" />
            <mxPoint x="1640" y="-380" as="targetPoint" />
          </mxGeometry>
        </mxCell>
        <mxCell id="IMg1KoeKDZ7LWF8RLD5s-101" value="$$USclOelPu$$" style="text;strokeColor=none;align=center;fillColor=none;html=1;verticalAlign=middle;whiteSpace=wrap;rounded=0;" vertex="1" parent="1">
          <mxGeometry x="1560" y="-455" width="100" height="30" as="geometry" />
        </mxCell>
        <mxCell id="IMg1KoeKDZ7LWF8RLD5s-102" value="" style="endArrow=classic;html=1;rounded=0;exitX=1;exitY=0.5;exitDx=0;exitDy=0;entryX=0;entryY=0.5;entryDx=0;entryDy=0;" edge="1" parent="1" source="IMg1KoeKDZ7LWF8RLD5s-97" target="IMg1KoeKDZ7LWF8RLD5s-101">
          <mxGeometry width="50" height="50" relative="1" as="geometry">
            <mxPoint x="1590" y="-330" as="sourcePoint" />
            <mxPoint x="1640" y="-380" as="targetPoint" />
          </mxGeometry>
        </mxCell>
      </root>
    </mxGraphModel>
  </diagram>
</mxfile>
